<svg width="50" height="50" viewBox="0 0 50 50" fill="none" xmlns="http://www.w3.org/2000/svg">
<path d="M26.0181 10.5869C19.0522 10.5869 13.3873 16.2514 13.3847 23.2142C13.3837 25.6005 14.0514 27.924 15.3153 29.9346L15.6154 30.4122L14.3399 35.0723L19.1191 33.8186L19.5805 34.0924C21.5192 35.2432 23.7417 35.8516 26.0079 35.8526H26.013C32.9733 35.8526 38.6382 30.1876 38.6413 23.2243C38.6428 19.8499 37.3302 16.6772 34.9459 14.2904C32.5616 11.903 29.391 10.5879 26.0181 10.5869ZM33.4463 28.6434C33.1299 29.5301 31.6131 30.3397 30.884 30.4482C30.23 30.5461 29.4021 30.5866 28.4931 30.2976C27.942 30.1227 27.2348 29.889 26.3288 29.4981C22.5199 27.854 20.0327 24.0192 19.8431 23.7663C19.6535 23.5128 18.2928 21.7079 18.2928 19.8392C18.2928 17.9705 19.2733 17.0524 19.6216 16.6721C19.9693 16.2919 20.381 16.1971 20.634 16.1971C20.887 16.1971 21.1405 16.1996 21.3615 16.2103C21.5947 16.222 21.9075 16.1221 22.2158 16.8618C22.5321 17.6222 23.2916 19.4904 23.3864 19.6805C23.4812 19.8707 23.5445 20.0922 23.4178 20.3457C23.291 20.5987 23.2282 20.7574 23.0381 20.9789C22.848 21.2005 22.6396 21.4737 22.4687 21.6441C22.2786 21.8332 22.0809 22.039 22.3024 22.4187C22.524 22.799 23.286 24.0421 24.4145 25.0484C25.8645 26.3417 27.0878 26.7427 27.4675 26.9328C27.8472 27.123 28.0688 27.091 28.2898 26.838C28.5114 26.5845 29.2389 25.7293 29.4919 25.3496C29.7449 24.9698 29.9978 25.0327 30.3461 25.1594C30.6939 25.2862 32.5606 26.2043 32.9403 26.3944C33.32 26.5845 33.573 26.6793 33.6678 26.838C33.7626 26.9962 33.7626 27.7567 33.4463 28.6434Z" fill="white"/>
<path d="M25 0C11.193 0 0 11.193 0 25C0 38.807 11.193 50 25 50C38.807 50 50 38.807 50 25C50 11.193 38.807 0 25 0ZM26.0129 38.4181C26.0124 38.4181 26.0134 38.4181 26.0129 38.4181H26.0069C23.4639 38.4171 20.9655 37.7793 18.7465 36.5687L10.6921 38.6818L12.8478 30.8084C11.518 28.5042 10.8184 25.8903 10.8199 23.2129C10.8224 14.8356 17.6387 8.02036 26.0129 8.02036C30.0774 8.02188 33.8924 9.60415 36.7608 12.4762C39.6293 15.3477 41.2085 19.1652 41.2065 23.2251C41.203 31.6024 34.3867 38.4181 26.0129 38.4181Z" fill="white"/>
</svg>
