<svg width="50" height="50" viewBox="0 0 50 50" fill="none" xmlns="http://www.w3.org/2000/svg">
<path d="M25 0C11.193 0 0 11.193 0 25C0 38.807 11.193 50 25 50C38.807 50 50 38.807 50 25C50 11.193 38.807 0 25 0ZM24.1544 13.0267C24.3389 13.0232 24.5321 13.0516 24.6978 13.0511C24.7653 13.0506 24.8276 13.0455 24.8819 13.0318C30.852 13.2488 36.0617 18.676 35.9532 24.6461C35.9532 25.1886 36.1702 26.057 35.3018 26.057C34.4333 26.057 34.6503 25.1886 34.6503 24.5376C34.5555 23.7508 34.4262 23.0162 34.2614 22.3318C34.0967 21.6474 33.8954 21.0126 33.6566 20.425C33.2977 19.5434 32.8536 18.7677 32.3157 18.0889C30.703 16.0519 28.2533 14.8843 24.7729 14.3347C24.2304 14.2263 23.4705 14.3347 23.4705 13.6833C23.4705 13.1195 23.7954 13.0262 24.1544 13.0267ZM32.3709 24.8631C31.394 24.9716 31.611 24.1032 31.5025 23.5607C30.851 19.7614 29.5486 18.3505 25.6413 17.4821C25.0984 17.3736 24.2304 17.4821 24.3389 16.6136C24.4474 15.7452 25.3158 16.0711 25.8583 16.1796C29.7661 16.6136 32.9139 19.8699 32.9139 23.5607C32.8049 23.9947 33.1309 24.7546 32.3709 24.8631ZM29.9831 22.9092C29.9831 23.3432 29.9831 23.8862 29.3316 23.9947C28.8976 23.9947 28.6801 23.6692 28.5716 23.2347C28.4632 21.6068 27.5947 20.7384 25.9668 20.5209C25.5328 20.4124 24.9899 20.3039 25.2068 19.6524C25.3153 19.2184 25.7493 19.2184 26.1838 19.2184C28.0292 19.1105 29.9831 21.0643 29.9831 22.9092ZM36.0612 34.8495C35.4097 36.6949 33.1304 38.5398 31.1765 38.5398C30.9595 38.4313 30.4165 38.4313 29.8741 38.2143C21.4076 34.5241 15.1119 28.5539 11.6386 19.8704C10.4447 17.0481 11.7471 14.5517 14.678 13.5748C15.2204 13.3578 15.7634 13.3578 16.3059 13.5748C17.6083 14.0088 20.7561 18.4595 20.8646 19.7619C20.9731 20.8474 20.2131 21.3898 19.5622 21.8243C18.2598 22.6928 18.2598 23.8867 18.8022 25.0806C20.1046 27.9029 22.2755 29.7478 24.9894 31.0508C25.9663 31.4847 26.9432 31.4847 27.5942 30.3993C28.7881 28.5539 30.3075 28.5539 31.9359 29.7478C32.6959 30.2903 33.5638 30.8333 34.3238 31.4847C35.4102 32.3527 36.7127 33.1126 36.0612 34.8495Z" fill="white"/>
</svg>
