<svg width="50" height="50" viewBox="0 0 50 50" fill="none" xmlns="http://www.w3.org/2000/svg">
<g clip-path="url(#clip0)">
<path d="M27.5787 21.0728V21.0142C27.5666 21.0334 27.5509 21.0541 27.5393 21.0728H27.5787Z" fill="white"/>
<path d="M25.0001 0C11.1931 0 9.15527e-05 11.193 9.15527e-05 25C9.15527e-05 38.807 11.1931 50 25.0001 50C38.8071 50 50.0001 38.807 50.0001 25C50.0001 11.193 38.8071 0 25.0001 0ZM18.306 36.6564H12.2755V18.5148H18.306V36.6564ZM15.291 16.0392H15.2504C13.2276 16.0392 11.9166 14.6445 11.9166 12.903C11.9166 11.1231 13.2666 9.76892 15.3305 9.76892C17.3944 9.76892 18.6634 11.1225 18.7029 12.903C18.7029 14.645 17.3949 16.0392 15.291 16.0392ZM40.0547 36.6564H34.0238V26.9503C34.0238 24.5123 33.1513 22.8484 30.9687 22.8484C29.3023 22.8484 28.3106 23.9698 27.8741 25.0548C27.7149 25.4426 27.6739 25.9825 27.6739 26.525V36.6564H21.6409C21.6409 36.6564 21.722 20.2177 21.6409 18.5148H27.6729V21.0861C28.4744 19.8517 29.9056 18.0884 33.1092 18.0884C37.0783 18.0884 40.0537 20.6811 40.0537 26.2538V36.6564H40.0547Z" fill="white"/>
</g>
<defs>
<clipPath id="clip0">
<rect width="49.829" height="49.829" fill="white"/>
</clipPath>
</defs>
</svg>
