<svg width="50" height="50" viewBox="0 0 50 50" fill="none" xmlns="http://www.w3.org/2000/svg">
<path d="M25 0C11.193 0 0 11.193 0 25C0 38.807 11.193 50 25 50C38.807 50 50 38.807 50 25C50 11.193 38.807 0 25 0ZM35.8412 28.3045C36.0379 28.5478 36.5058 29.0218 37.246 29.7276H37.2632L37.2805 29.7443L37.2977 29.762L37.3327 29.7965C38.9631 31.3113 40.0673 32.5894 40.6458 33.6303C40.6808 33.6875 40.7183 33.7605 40.7588 33.8472C40.7989 33.9339 40.8395 34.087 40.88 34.3066C40.9201 34.5271 40.917 34.7228 40.8714 34.8962C40.8253 35.0691 40.6808 35.2293 40.4379 35.3732C40.1951 35.5182 39.8539 35.5902 39.4143 35.5902L34.9737 35.6602C34.6964 35.718 34.3725 35.6891 34.0024 35.5735C33.6318 35.4574 33.3316 35.3301 33.1005 35.1917L32.7532 34.9829C32.4059 34.74 32.0013 34.3699 31.539 33.8731C31.0761 33.3758 30.6802 32.9276 30.3506 32.5286C30.0211 32.1296 29.6682 31.795 29.2921 31.5222C28.9159 31.2505 28.5894 31.1608 28.3121 31.2535C28.2776 31.2657 28.231 31.286 28.1732 31.3144C28.1149 31.3433 28.017 31.4264 27.8781 31.5658C27.7392 31.7048 27.615 31.8756 27.505 32.0774C27.395 32.2802 27.2966 32.5808 27.2099 32.9798C27.1232 33.3783 27.0852 33.827 27.0974 34.3243C27.0974 34.4972 27.0766 34.6569 27.0365 34.8014C26.996 34.9459 26.9524 35.0528 26.9062 35.1218L26.8368 35.2085C26.6284 35.429 26.3222 35.5557 25.9176 35.5902H23.9227C23.1014 35.6369 22.2573 35.5416 21.3903 35.3043C20.5234 35.0665 19.7624 34.7608 19.1094 34.3846C18.4554 34.0095 17.8603 33.6277 17.3229 33.2404C16.785 32.8526 16.3774 32.5205 16.1 32.2432L15.6666 31.8264C15.551 31.7113 15.3918 31.5375 15.1895 31.3058C14.9872 31.0746 14.574 30.5489 13.9494 29.7276C13.3249 28.9063 12.7119 28.0337 12.1106 27.108C11.5094 26.1828 10.8011 24.9625 9.9854 23.4476C9.17018 21.9333 8.4158 20.3607 7.72175 18.7297C7.6523 18.5452 7.61731 18.389 7.61731 18.2618C7.61731 18.135 7.63455 18.0423 7.66953 17.984L7.73899 17.88C7.91237 17.66 8.24191 17.55 8.72759 17.55L13.4805 17.5155C13.6194 17.5388 13.7522 17.5764 13.8795 17.6286C14.0067 17.6803 14.0995 17.7295 14.1573 17.7756L14.244 17.8278C14.429 17.9556 14.5674 18.1401 14.6602 18.3829C14.8914 18.9619 15.1576 19.5601 15.4582 20.1787C15.7588 20.7972 15.9961 21.2687 16.1695 21.5921L16.4468 22.0955C16.7819 22.7891 17.1059 23.3909 17.4182 23.8994C17.731 24.4084 18.0108 24.8048 18.2598 25.0877C18.5082 25.3711 18.748 25.5942 18.9797 25.7554C19.2108 25.9176 19.4075 25.9987 19.5698 25.9987C19.7315 25.9987 19.8877 25.9698 20.0382 25.9121C20.061 25.9004 20.0899 25.8715 20.1249 25.8254C20.1599 25.7792 20.2288 25.652 20.3333 25.4431C20.4372 25.2352 20.5153 24.9635 20.5675 24.6279C20.6197 24.2933 20.6745 23.8248 20.7323 23.2236C20.7901 22.6218 20.7901 21.8993 20.7323 21.0552C20.709 20.5924 20.6567 20.1705 20.5761 19.7888C20.495 19.4075 20.4139 19.1414 20.3333 18.9908L20.2288 18.783C19.9399 18.39 19.4486 18.1411 18.7546 18.0367C18.604 18.0144 18.6329 17.8755 18.8413 17.621C19.038 17.4009 19.2575 17.2281 19.5003 17.1003C20.1133 16.8002 21.4953 16.6613 23.6464 16.6836C24.5944 16.6957 25.3752 16.7703 25.9881 16.9092C26.2193 16.9675 26.4129 17.045 26.5691 17.1434C26.7252 17.2412 26.8439 17.3807 26.925 17.5591C27.0056 17.7386 27.0664 17.9236 27.107 18.1143C27.1476 18.3054 27.1678 18.569 27.1678 18.9036C27.1678 19.2392 27.1623 19.5576 27.1506 19.8577C27.1389 20.1584 27.1247 20.5665 27.1075 21.0806C27.0903 21.5951 27.0811 22.0727 27.0811 22.5118C27.0811 22.6395 27.0756 22.8819 27.0639 23.2403C27.0522 23.5992 27.0487 23.8765 27.0553 24.0727C27.0609 24.2694 27.0811 24.5042 27.1156 24.7754C27.1506 25.0471 27.217 25.2733 27.3154 25.4517C27.4132 25.6312 27.5435 25.7726 27.7057 25.8766C27.798 25.9004 27.8964 25.9232 28.0008 25.9465C28.1047 25.9693 28.2548 25.9065 28.4515 25.7554C28.6477 25.6053 28.8677 25.4056 29.1106 25.1572C29.3534 24.9093 29.654 24.5219 30.0125 23.9952C30.3704 23.4699 30.7638 22.8479 31.1917 22.1305C31.8857 20.928 32.5043 19.6266 33.0477 18.2273C33.0939 18.1112 33.1517 18.0103 33.2211 17.9236C33.2906 17.8364 33.354 17.7756 33.4117 17.7411L33.4812 17.6889C33.504 17.6772 33.5329 17.663 33.5679 17.6458C33.6029 17.6291 33.6779 17.6113 33.7935 17.5936C33.9091 17.5769 34.0247 17.5738 34.1408 17.5855L39.1365 17.55C39.5872 17.4927 39.9573 17.5069 40.2463 17.5931C40.5353 17.6798 40.7147 17.7756 40.7842 17.8795L40.8886 18.0529C41.1543 18.7936 40.2874 20.4925 38.2868 23.1526C38.009 23.5232 37.6328 24.0149 37.1593 24.6274C36.2574 25.7843 35.7372 26.5417 35.5993 26.9012C35.4016 27.3742 35.4827 27.8426 35.8412 28.3045Z" fill="white"/>
</svg>
