<svg width="50" height="50" viewBox="0 0 50 50" fill="none" xmlns="http://www.w3.org/2000/svg">
<path d="M31.5141 12.4058H18.3616C15.0703 12.4058 12.3925 15.0836 12.3925 18.3749V31.648C12.3925 34.9393 15.0703 37.6172 18.3616 37.6172H31.5141C34.8054 37.6172 37.4832 34.9393 37.4832 31.648V18.3749C37.4832 15.0836 34.8054 12.4058 31.5141 12.4058ZM24.9629 32.9591C20.5016 32.9591 16.8721 29.3682 16.8721 24.9544C16.8721 20.5407 20.5021 16.9498 24.9629 16.9498C29.4238 16.9498 33.0538 20.5407 33.0538 24.9544C33.0538 29.3682 29.4243 32.9591 24.9629 32.9591ZM33.1978 18.526C32.1463 18.526 31.2941 17.6737 31.2941 16.6223C31.2941 15.5708 32.1463 14.7186 33.1978 14.7186C34.2492 14.7186 35.1015 15.5708 35.1015 16.6223C35.1015 17.6737 34.2492 18.526 33.1978 18.526Z" fill="white"/>
<path d="M25 0C11.193 0 0 11.193 0 25C0 38.807 11.193 50 25 50C38.807 50 50 38.807 50 25C50 11.193 38.807 0 25 0ZM40.4359 31.648C40.4359 36.5677 36.4333 40.5697 31.5141 40.5697H18.3617C13.442 40.5697 9.43989 36.5672 9.43989 31.648V18.3748C9.43989 13.4551 13.4425 9.45307 18.3617 9.45307H31.5141C36.4338 9.45307 40.4359 13.4557 40.4359 18.3748V31.648Z" fill="white"/>
<path d="M24.963 19.897C22.1264 19.897 19.8192 22.1657 19.8192 24.9546C19.8192 27.7434 22.1264 30.0122 24.963 30.0122C27.7995 30.0122 30.1068 27.7434 30.1068 24.9546C30.1068 22.1657 27.7995 19.897 24.963 19.897Z" fill="white"/>
</svg>
