<svg width="50" height="50" viewBox="0 0 50 50" fill="none" xmlns="http://www.w3.org/2000/svg">
<path d="M25 0C11.193 0 -3.05176e-05 11.193 -3.05176e-05 25C-3.05176e-05 38.807 11.193 50 25 50C38.807 50 50 38.807 50 25C50 11.193 38.807 0 25 0ZM39.063 11.6194L33.4655 37.9071C33.3605 38.4232 32.7724 38.6762 32.3258 38.3963L23.7178 32.6873L19.19 36.9008C18.787 37.2455 18.1629 37.0777 17.9875 36.5768L15.0394 27.2789L7.12298 24.0322C6.51563 23.7554 6.52424 22.7881 7.14681 22.5462L38.05 10.7656C38.6067 10.5497 39.1816 11.0343 39.063 11.6194Z" fill="white"/>
<path d="M18.9385 33.8184L19.4414 29.0388L33.4025 15.3926L16.5486 26.4604L18.9385 33.8184Z" fill="white"/>
</svg>
